<?xml version="1.0" encoding="UTF-8" standalone="no"?>
<!-- Created with Inkscape (http://www.inkscape.org/) -->

<svg
   width="200mm"
   height="200mm"
   viewBox="0 0 200 200"
   version="1.1"
   id="svg1"
   xmlns:xlink="http://www.w3.org/1999/xlink"
   xmlns="http://www.w3.org/2000/svg"
   xmlns:svg="http://www.w3.org/2000/svg">
  <defs
     id="defs1">
    <linearGradient
       id="linearGradient1">
      <stop
         style="stop-color:#1800ff;stop-opacity:1;"
         offset="0"
         id="stop1" />
      <stop
         style="stop-color:#8e8eff;stop-opacity:1;"
         offset="0.66336632"
         id="stop2" />
    </linearGradient>
    <linearGradient
       xlink:href="#linearGradient1"
       id="linearGradient2"
       x1="37.726444"
       y1="74.61483"
       x2="174.12753"
       y2="-4.1363688"
       gradientUnits="userSpaceOnUse"
       gradientTransform="translate(-0.2545839,-9.4196043)" />
    <linearGradient
       xlink:href="#linearGradient1"
       id="linearGradient25"
       gradientUnits="userSpaceOnUse"
       x1="37.726444"
       y1="74.61483"
       x2="174.12753"
       y2="-4.1363688"
       gradientTransform="matrix(0.40561639,0,0,0.40561639,11.500298,28.697689)" />
  </defs>
  <g
     id="layer1">
    <g
       id="g25"
       transform="matrix(2.5917513,0,0,2.5917513,-42.851841,20.412112)">
      <path
         id="path18"
         style="font-size:38.1px;line-height:0;font-family:Ubuntu;-inkscape-font-specification:Ubuntu;fill:url(#linearGradient25);stroke-width:0.158597"
         d="M 40.093281,51.136071 C 34.271058,49.257698 35.901032,36.92726 37.666607,34.747729 c 2.853433,4.869928 -1.188301,11.104718 2.426674,16.388342 z m 4.795999,-0.228378 c -5.514551,-1.145375 -0.652112,-16.844551 0.180858,-7.035477 -0.03842,2.345347 -0.581056,4.691801 -0.180858,7.035477 z M 43.815894,36.885157 c -3.85837,-3.18595 4.795918,-1.431542 0,0 z m 9.888871,14.296591 c -11.327876,1.182189 -2.16609,-17.830187 0.0088,-10.95 -8.521034,2.340005 -0.117199,10.365551 1.847773,10.546411 l -1.137295,0.249807 z m 9.751825,-6.805724 c 4.724368,1.813296 4.482305,9.224804 0.109176,2.818539 -2.9165,1.509286 -4.881342,4.31384 -4.38415,-1.586009 -1.524103,-4.176409 1.95355,-16.680499 2.179669,-6.483697 -1.108493,6.80065 3.182239,1.149383 5.342897,0.602698 -0.323098,1.881076 -1.617408,3.67043 -3.247592,4.648469 z m 15.232956,0.593786 c -0.41518,-9.931469 -13.512124,2.898624 -3.53549,4.110549 2.17841,0.294425 4.16736,-1.993986 3.53549,-4.110549 z m 2.21528,0 c 0.10158,12.627471 -19.805788,1.231553 -8.398151,-5.353958 3.664181,-2.11651 9.344441,0.798537 8.398151,5.353958 z m 5.50397,4.704631 c -2.61632,3.954788 -2.37409,-5.563094 0,0 z" />
      <path
         id="text1"
         style="font-size:38.1px;line-height:0;font-family:Ubuntu;-inkscape-font-specification:Ubuntu;fill:url(#linearGradient2);stroke-width:0.391003"
         d="m 38.369787,10.709336 c -20.937245,9.31341 19.083983,26.63258 9.183961,3.29314 -2.017398,-2.78991 -5.807152,-4.3933303 -9.183961,-3.29314 z M 37.919351,5.9234657 c 23.067338,-4.36318 18.807604,32.2362003 -2.582602,26.9650503 -2.448935,8.70083 -8.144755,14.91966 -7.736858,0.69484 0.601015,-8.5132 -5.532035,-31.4848403 10.31946,-27.6598903 z" />
    </g>
  </g>
</svg>
