<?xml version="1.0" encoding="UTF-8" standalone="no"?>
<!-- Created with Inkscape (http://www.inkscape.org/) -->

<svg
   width="200mm"
   height="75mm"
   viewBox="0 0 200 75"
   version="1.1"
   id="svg1"
   xmlns:xlink="http://www.w3.org/1999/xlink"
   xmlns="http://www.w3.org/2000/svg"
   xmlns:svg="http://www.w3.org/2000/svg">
  <defs
     id="defs1">
    <linearGradient
       id="linearGradient1">
      <stop
         style="stop-color:#1800ff;stop-opacity:1;"
         offset="0"
         id="stop1" />
      <stop
         style="stop-color:#8e8eff;stop-opacity:1;"
         offset="0.66336632"
         id="stop2" />
    </linearGradient>
    <linearGradient
       xlink:href="#linearGradient1"
       id="linearGradient2"
       x1="37.726444"
       y1="74.61483"
       x2="174.12753"
       y2="-4.1363688"
       gradientUnits="userSpaceOnUse" />
  </defs>
  <g
     id="layer1">
    <path
       style="font-size:38.1px;line-height:0;font-family:Ubuntu;-inkscape-font-specification:Ubuntu;fill:url(#linearGradient2);stroke-width:0.391003"
       d="m 38.173935,15.34307 c 23.067338,-4.36318 18.807604,32.2362 -2.582602,26.96505 -2.448935,8.70083 -8.144755,14.91966 -7.736858,0.69484 0.601015,-8.5132 -5.532035,-31.48484 10.31946,-27.65989 z m 0.450436,4.78587 c -20.937245,9.31341 19.083983,26.63258 9.183961,3.29314 -2.017398,-2.78991 -5.807152,-4.39333 -9.183961,-3.29314 z M 70.49267,55.31922 C 56.138657,50.68831 60.157169,20.28905 64.50999,14.91567 71.544795,26.92191 61.580371,42.29306 70.49267,55.31922 Z M 82.316649,54.75618 C 68.721164,51.93239 80.708942,13.2279 82.762533,37.41103 82.667803,43.19321 81.330006,48.97812 82.316649,54.75618 Z M 79.67034,20.18525 c -9.512363,-7.85459 11.823777,-3.5293 0,0 z m 24.37986,35.24658 c -27.927558,2.91455 -5.340243,-43.95825 0.0216,-26.99595 -21.007617,5.76901 -0.28894,25.55506 4.55547,26.00095 l -2.80387,0.61587 z m 24.04199,-16.77872 c 11.64738,4.47047 11.0506,22.74268 0.26916,6.94878 -7.19029,3.72097 -12.03438,10.63527 -10.80861,-3.91012 -3.7575,-10.29645 4.81625,-41.12382972 5.37372,-15.9848 -2.73286,16.76621 7.84544,2.83367 13.17229,1.48588 -0.79656,4.637576 -3.98753,9.04902 -8.00656,11.46026 z m 43.0166,1.46391 c 0.25043,31.13156 -48.82887,3.03625 -20.70467,-13.19956 9.03362,-5.21801 23.03763,1.9687 20.70467,13.19956 z m -5.46153,0 c -1.02356,-24.48488 -33.31256,7.14622 -8.71633,10.13408 5.37061,0.72587 10.27413,-4.91594 8.71633,-10.13408 z m 19.03092,11.59872 c -6.45023,9.75007 -5.85305,-13.71516 0,0 z"
       id="text1"
       aria-label="Plicko." />
  </g>
</svg>
